<svg xmlns="http://www.w3.org/2000/svg" xmlns:xlink="http://www.w3.org/1999/xlink" viewBox="0,0,256,256" width="250px" height="250px" fill-rule="nonzero"><g fill="#feb954" fill-rule="nonzero" stroke="none" stroke-width="1" stroke-linecap="butt" stroke-linejoin="miter" stroke-miterlimit="10" stroke-dasharray="" stroke-dashoffset="0" font-family="none" font-weight="none" font-size="none" text-anchor="none" style="mix-blend-mode: normal"><g transform="scale(5.12,5.12)"><path d="M25,5c-9.39844,0 -17,5.80078 -17,13v2.52734c-3.49219,1.51953 -6,6.0625 -6,11.47266c0,6.39844 3.5,11.60156 8,12v-26c0,-6.10156 6.69922,-11 15,-11c8.30078,0 15,4.89844 15,11v26c4.5,-0.39844 8,-5.60156 8,-12c0,-5.41016 -2.50781,-9.95312 -6,-11.47266v-2.52734c0,-7.19922 -7.60156,-13 -17,-13zM12,20.19922v23.60156c0.69922,-0.19922 1.39844,-0.5 2,-0.89844v-21.80469c-0.60156,-0.39844 -1.30078,-0.69922 -2,-0.89844zM38,20.19922c-0.69922,0.19922 -1.39844,0.5 -2,0.89844v21.80469c0.60156,0.39844 1.30078,0.69922 2,0.89844zM24.40234,21l-2.10156,13.40234l-2.89844,-10.40234l-2.10156,8.90234l-1.30078,-3.40234v4.09766l1.69922,4.40234l1.89844,-8l3.10156,11.59766l1.89844,-12.59766l2.80469,12.09766l3,-11l1.89844,8.30469l1.69922,-3.90234v-3.69922l-1.30078,2.79688l-2.10156,-9.69531l-3,11z"></path></g></g></svg>